<?xml version="1.0" standalone="no"?>
<!DOCTYPE svg PUBLIC "-//W3C//DTD SVG 20010904//EN"
 "http://www.w3.org/TR/2001/REC-SVG-20010904/DTD/svg10.dtd">
<svg version="1.0" xmlns="http://www.w3.org/2000/svg"
 width="338.000000pt" height="338.000000pt" viewBox="0 0 338.000000 338.000000"
 preserveAspectRatio="xMidYMid meet">
<metadata>
Created by potrace 1.11, written by Peter Selinger 2001-2013
</metadata>
<g transform="translate(0.000000,338.000000) scale(0.100000,-0.100000)"
fill="#000000" stroke="none">
<path d="M1851 3352 c-95 -53 -136 -122 -136 -227 1 -101 44 -178 127 -222 46
-24 55 -26 128 -26 173 -2 291 165 235 333 -47 141 -227 213 -354 142z"/>
<path d="M1216 3327 c-35 -52 23 -107 73 -69 27 20 30 53 9 80 -17 21 -66 15
-82 -11z"/>
<path d="M980 3293 c-83 -24 -113 -98 -70 -169 39 -63 135 -63 178 0 25 36 27
58 11 104 -16 45 -75 78 -119 65z"/>
<path d="M1408 3225 c-1 -2 -19 -6 -38 -9 -102 -16 -174 -101 -172 -204 1 -67
33 -126 90 -167 39 -27 52 -30 115 -30 77 0 108 14 155 65 32 35 44 66 48 129
4 74 -26 134 -86 174 -27 18 -106 48 -112 42z"/>
<path d="M2474 3213 c-79 -27 -144 -113 -144 -191 0 -127 89 -213 216 -208 73
3 119 28 160 88 25 36 29 50 29 112 0 56 -5 79 -22 107 -31 49 -89 87 -142 94
-23 3 -46 7 -50 9 -3 2 -25 -3 -47 -11z"/>
<path d="M608 3126 c-62 -31 -83 -66 -83 -136 0 -44 5 -66 21 -87 70 -93 205
-86 261 14 71 128 -69 276 -199 209z"/>
<path d="M944 2846 c-127 -71 -95 -258 49 -285 89 -16 167 48 175 143 4 56
-18 101 -68 138 -38 28 -110 30 -156 4z"/>
<path d="M2890 2863 c-38 -7 -90 -51 -107 -91 -50 -119 54 -240 179 -209 94
23 140 135 94 226 -27 51 -102 85 -166 74z"/>
<path d="M309 2802 c-40 -11 -92 -51 -119 -91 -18 -28 -24 -51 -26 -100 -1
-65 4 -83 44 -138 70 -98 242 -97 319 3 32 42 34 50 39 124 8 108 -71 198
-179 205 -28 2 -64 1 -78 -3z"/>
<path d="M2017 2682 c-21 -23 -21 -41 -1 -70 29 -41 94 -19 94 33 0 25 -33 55
-61 55 -9 0 -23 -8 -32 -18z"/>
<path d="M2274 2675 c-35 -14 -67 -58 -69 -95 -4 -53 40 -106 95 -115 66 -10
135 59 124 125 -12 66 -90 111 -150 85z"/>
<path d="M2580 2513 c-51 -20 -90 -80 -90 -138 0 -58 20 -98 67 -130 94 -64
226 -1 237 113 11 115 -104 198 -214 155z"/>
<path d="M3091 2486 c-76 -25 -101 -119 -47 -174 34 -37 77 -46 121 -28 42 18
65 52 67 100 3 72 -71 126 -141 102z"/>
<path d="M774 2480 c-37 -15 -64 -59 -64 -104 0 -113 163 -143 207 -38 38 91
-51 180 -143 142z"/>
<path d="M217 2289 c-88 -14 -165 -75 -201 -160 -20 -47 -15 -153 8 -199 43
-84 116 -135 205 -143 140 -13 264 87 278 226 17 164 -127 300 -290 276z"/>
<path d="M2892 2186 c-47 -12 -117 -71 -133 -114 -15 -38 -18 -122 -5 -152 49
-118 171 -167 284 -115 127 59 155 228 55 328 -53 54 -123 72 -201 53z"/>
<path d="M696 2158 c-17 -26 -16 -49 3 -72 29 -35 91 -9 91 38 0 48 -69 73
-94 34z"/>
<path d="M3206 2162 c-32 -36 -7 -92 41 -92 42 0 66 61 36 91 -19 19 -59 20
-77 1z"/>
<path d="M310 1678 c-154 -43 -200 -248 -79 -352 122 -104 298 -45 335 113 34
145 -110 280 -256 239z"/>
<path d="M2980 1663 c-65 -23 -115 -66 -145 -127 -46 -94 -32 -202 36 -280
125 -142 361 -100 427 77 75 200 -119 401 -318 330z"/>
<path d="M2539 1374 c-19 -23 -20 -46 -3 -72 27 -41 93 -17 94 34 0 44 -63 71
-91 38z"/>
<path d="M42 1350 c-6 -11 -12 -27 -12 -35 0 -24 37 -54 61 -50 46 9 61 43 39
86 -15 26 -71 26 -88 -1z"/>
<path d="M635 1239 c-37 -10 -86 -54 -102 -90 -6 -14 -9 -47 -7 -72 11 -142
193 -191 276 -75 31 45 33 134 2 175 -40 54 -110 79 -169 62z"/>
<path d="M149 1176 c-38 -18 -68 -71 -62 -109 13 -89 101 -129 172 -78 79 57
45 186 -52 195 -19 2 -46 -2 -58 -8z"/>
<path d="M2455 1179 c-77 -45 -83 -146 -11 -193 69 -45 166 10 166 93 0 56
-40 100 -95 107 -22 2 -49 -1 -60 -7z"/>
<path d="M2876 1055 c-166 -57 -180 -296 -22 -374 68 -34 133 -32 198 6 80 47
115 142 89 239 -28 104 -156 166 -265 129z"/>
<path d="M924 966 c-26 -26 -34 -42 -34 -70 0 -63 42 -107 105 -111 101 -7
152 119 76 187 -46 41 -102 39 -147 -6z"/>
<path d="M360 903 c-35 -7 -87 -48 -106 -85 -20 -38 -14 -114 12 -152 37 -57
121 -82 189 -56 48 18 82 66 90 128 12 100 -80 183 -185 165z"/>
<path d="M2265 900 c-11 -4 -29 -10 -41 -14 -11 -4 -32 -26 -47 -49 -70 -108
2 -241 128 -236 74 4 113 30 141 97 20 48 5 122 -30 157 -40 41 -106 60 -151
45z"/>
<path d="M1226 855 c-39 -36 -18 -92 34 -90 30 1 53 22 53 49 0 54 -48 77 -87
41z"/>
<path d="M726 653 c-11 -3 -37 -16 -57 -29 -97 -61 -123 -181 -62 -281 107
-173 377 -96 376 107 -1 87 -52 165 -128 194 -26 10 -104 15 -129 9z"/>
<path d="M1847 646 c-87 -32 -137 -102 -137 -195 0 -213 286 -281 387 -93 26
49 26 139 0 188 -34 65 -116 115 -187 114 -14 -1 -42 -7 -63 -14z"/>
<path d="M2595 622 c-38 -13 -67 -37 -86 -74 -51 -100 11 -214 123 -223 56 -4
99 14 133 60 90 117 -29 282 -170 237z"/>
<path d="M1260 573 c-93 -40 -154 -125 -163 -228 -2 -16 1 -43 6 -60 4 -16 9
-36 11 -43 1 -6 16 -32 33 -56 109 -155 350 -132 434 40 59 122 7 273 -115
337 -51 26 -156 31 -206 10z"/>
<path d="M2271 379 c-22 -9 -59 -44 -62 -58 -8 -39 -6 -69 6 -91 52 -100 198
-68 207 46 5 75 -79 133 -151 103z"/>
<path d="M2033 200 c-27 -11 -39 -51 -23 -79 23 -44 100 -22 100 29 0 17 -35
60 -48 59 -4 0 -17 -4 -29 -9z"/>
</g>
</svg>
